# xmcd
#
# Track frame offsets:
#	150
#	4052
#	18370
#	31172
#	51062
#	66435
#	82142
#	102440
#	117397
#	128182
#	139865
#	154065
#	182635
#	200592
#	214012
#	234897
#	258722
#	272532
#	285300
#	301620
#	318542
#
# Disc length: 4299 seconds
#
# Revision: 1
# Processed by: cddbd v1.5.2PL0 Copyright (c) Steve Scherf et al.
# Submitted via: audiograbber 1.83.01
#
DISCID=2610c915
DTITLE=mir Zwä - Unplugged
DYEAR=1997
DGENRE=Country
TTITLE0=Intro
TTITLE1=Before You Accause Me
TTITLE2=Fire Lake
TTITLE3=Baby I Like Your Way
TTITLE4=Wish You Were Here
TTITLE5=Help
TTITLE6=Boxer
TTITLE7=Weather With You
TTITLE8=Dust In The Wind
TTITLE9=Lookin' Out My Back Door
TTITLE10=Layla
TTITLE11=Hotel California
TTITLE12=Show Me The Way
TTITLE13=Heard Of Gold
TTITLE14=Loosing My Religion
TTITLE15=Weit Weit Weg
TTITLE16=Boat On THe River
TTITLE17=Sound Of Silence
TTITLE18=Let It Be
TTITLE19=Und Irgendwann ...
TTITLE20=xx
EXTD=
EXTT0=
EXTT1=
EXTT2=
EXTT3=
EXTT4=
EXTT5=
EXTT6=
EXTT7=
EXTT8=
EXTT9=
EXTT10=
EXTT11=
EXTT12=
EXTT13=
EXTT14=
EXTT15=
EXTT16=
EXTT17=
EXTT18=
EXTT19=
EXTT20=
PLAYORDER=
